<svg width="24" height="24" viewBox="0 0 24 24" fill="none" xmlns="http://www.w3.org/2000/svg">
<g clip-path="url(#clip0_685_3)">
<path d="M7.5793 4.08L6.1493 2.65C3.7493 4.48 2.1693 7.3 2.0293 10.5H4.0293C4.1793 7.85 5.5393 5.53 7.5793 4.08ZM19.9693 10.5H21.9693C21.8193 7.3 20.2393 4.48 17.8493 2.65L16.4293 4.08C18.4493 5.53 19.8193 7.85 19.9693 10.5ZM17.9993 11C17.9993 7.93 16.3593 5.36 13.4993 4.68V4C13.4993 3.17 12.8293 2.5 11.9993 2.5C11.1693 2.5 10.4993 3.17 10.4993 4V4.68C7.6293 5.36 5.9993 7.92 5.9993 11V16L3.9993 18V19H19.9993V18L17.9993 16V11ZM11.9993 22C12.1393 22 12.2693 21.99 12.3993 21.96C13.0493 21.82 13.5793 21.38 13.8393 20.78C13.9393 20.54 13.9893 20.28 13.9893 20H9.9893C9.9993 21.1 10.8893 22 11.9993 22Z" fill="black" fill-opacity="0.6"/>
</g>
<defs>
<clipPath id="clip0_685_3">
<rect width="24" height="24" fill="white"/>
</clipPath>
</defs>
</svg>
