<svg width="17" height="20" viewBox="0 0 17 20" fill="none" xmlns="http://www.w3.org/2000/svg">
<path d="M16 16.69L3.84 4.14L1.27 1.49L0 2.76L2.8 5.56V5.57C2.28 6.56 2 7.73 2 8.99V13.99L0 15.99V16.99H13.73L15.73 18.99L17 17.72L16 16.69ZM8 20C9.11 20 10 19.11 10 18H6C6 19.11 6.89 20 8 20ZM14 12.68V9C14 5.92 12.36 3.36 9.5 2.68V2C9.5 1.17 8.83 0.5 8 0.5C7.17 0.5 6.5 1.17 6.5 2V2.68C6.35 2.71 6.21 2.76 6.08 2.8C5.98 2.83 5.88 2.87 5.78 2.91H5.77C5.76 2.91 5.76 2.91 5.75 2.92C5.52 3.01 5.29 3.12 5.07 3.23C5.07 3.23 5.06 3.23 5.06 3.24L14 12.68Z" fill="black" fill-opacity="0.6"/>
</svg>
