<svg width="24" height="24" viewBox="0 0 24 24" fill="none" xmlns="http://www.w3.org/2000/svg">
<path fill-rule="evenodd" clip-rule="evenodd" d="M19.1235 12.936C19.1595 12.636 19.1835 12.324 19.1835 12C19.1835 11.676 19.1595 11.364 19.1115 11.064L21.1395 9.47999C21.3195 9.33599 21.3675 9.07199 21.2595 8.86799L19.3395 5.54399C19.2195 5.32799 18.9675 5.25599 18.7515 5.32799L16.3635 6.28799C15.8595 5.90399 15.3315 5.59199 14.7435 5.35199L14.3835 2.80799C14.3475 2.56799 14.1435 2.39999 13.9035 2.39999H10.0635C9.82351 2.39999 9.63151 2.56799 9.59551 2.80799L9.23551 5.35199C8.64751 5.59199 8.10751 5.91599 7.61551 6.28799L5.2275 5.32799C5.0115 5.24399 4.75951 5.32799 4.63951 5.54399L2.71951 8.86799C2.59951 9.08399 2.64751 9.33599 2.83951 9.47999L4.86751 11.064C4.8195 11.364 4.7835 11.688 4.7835 12C4.7835 12.312 4.8075 12.636 4.8555 12.936L2.82751 14.52C2.64751 14.664 2.59951 14.928 2.70751 15.132L4.62751 18.456C4.7475 18.672 4.99951 18.744 5.21551 18.672L7.60351 17.712C8.10751 18.096 8.63551 18.408 9.22351 18.648L9.58351 21.192C9.63151 21.432 9.82351 21.6 10.0635 21.6H13.9035C14.1435 21.6 14.3475 21.432 14.3715 21.192L14.7315 18.648C15.3195 18.408 15.8595 18.084 16.3515 17.712L18.7395 18.672C18.9555 18.756 19.2075 18.672 19.3275 18.456L21.2475 15.132C21.3675 14.916 21.3195 14.664 21.1275 14.52L19.1235 12.936ZM11.9835 15.6C10.0035 15.6 8.3835 13.98 8.3835 12C8.3835 10.02 10.0035 8.39999 11.9835 8.39999C13.9635 8.39999 15.5835 10.02 15.5835 12C15.5835 13.98 13.9635 15.6 11.9835 15.6Z" fill="black" opacity="0.87" fill-opacity="0.6" />
</svg>
